<svg t="1776334894762" class="icon" viewBox="0 0 1024 1024" version="1.1" xmlns="http://www.w3.org/2000/svg" p-id="7607" width="200" height="200"><path d="M599.68512 706.84672s-45.25056 50.14528-87.63904 50.14528c-45.16352 0-87.63904-50.14528-87.63904-50.14528s-50.07872 31.34464-25.0368 75.22304c25.0368 43.8784 112.67584 100.29568 112.67584 100.29568s94.26432-57.27232 112.67584-100.29568c19.13344-44.70272-25.0368-75.22304-25.0368-75.22304z m-300.4672 12.53888c-49.9712-7.14752-75.11552-25.07264-75.11552-25.07264s-63.33952 12.53376-62.59712 75.22304c0.47104 39.69536 62.59712 75.22304 62.59712 75.22304s58.5472-10.82368 100.15744-37.61152c45.824-29.49632 75.11552-87.7568 75.11552-87.7568s-65.24928 4.98688-100.15744-0.00512z m513.30048-25.07776s-25.14944 17.92512-75.11552 25.07264c-34.90816 4.992-100.15744 0-100.15744 0s29.29664 58.26048 75.11552 87.7568c41.61024 26.78784 100.15744 37.61152 100.15744 37.61152s62.12608-35.52768 62.59712-75.22304c0.7424-62.68416-62.59712-75.21792-62.59712-75.21792z m-676.05504-87.7568c-30.39232-47.34464-37.56032-100.29568-37.56032-100.29568S29.9264 534.76864 11.26912 581.4784c-18.89792 47.31392 12.5184 112.82944 12.5184 112.82944s37.8112 15.86176 87.63904 12.53888c43.65824-2.91328 100.15744-25.07264 100.15744-25.07264s-49.60768-35.47648-75.12064-75.22304z m876.3648-25.07264c-18.65728-46.70976-87.63904-75.22304-87.63904-75.22304s-7.16288 52.95104-37.56032 100.29568c-25.51296 39.74656-75.11552 75.22304-75.11552 75.22304s56.49408 22.15936 100.15744 25.07264c49.82784 3.328 87.63904-12.53888 87.63904-12.53888s31.42144-65.51552 12.5184-112.82944zM361.81504 669.2352c-0.65536 0.57344-55.69024-28.9536-89.74848-95.98976-28.80512-56.704-46.6432-139.25376-85.5296-179.81952-62.76608-65.46944-125.19424-37.61152-125.19424-37.61152s94.848 185.37472 158.98112 285.54752c50.26816 78.52544 141.3376 28.26752 141.4912 27.87328z m300.4672 0c0.1536 0.38912 91.22304 50.65216 141.4912-27.87328 64.13312-100.17792 158.976-285.54752 158.976-285.54752s-62.43328-27.85792-125.19424 37.61152c-38.8864 40.56064-56.72448 123.11552-85.5296 179.81952-34.05312 67.03616-89.088 96.5632-89.74336 95.98976z m-262.90688-125.36832c2.17088 80.37888 112.67584 137.9072 112.67584 137.9072s112.67584-28.91776 112.67584-137.9072c0-122.1888-112.67584-313.4208-112.67584-313.4208h-12.5184c-0.00512 0-103.8336 177.25952-100.15744 313.4208z m12.5184-225.664L349.29664 192.83456S265.0368 276.13184 261.6576 380.88704c-2.83648 88.12032 75.11552 200.59136 75.11552 200.59136l75.12064-263.27552z m363.06432 62.68416c-3.37408-104.7552-87.63904-188.05248-87.63904-188.05248l-62.59712 125.36832 75.11552 263.27552c0.00512 0 77.96224-112.47104 75.12064-200.59136z" fill="#FFCA52" p-id="7608"></path></svg>